ModelForces
version=1
nRows=4
nColumns=155
inDegrees=no

This file contains the forces exerted on a model during a simulation.

A force is a generalized force, meaning that it can be either a force (N) or a torque (Nm).

Units are S.I. units (second, meters, Newtons, ...)
Angles are in degrees.

endheader
time	glut_med1_r	glut_med2_r	glut_med3_r	glut_min1_r	glut_min2_r	glut_min3_r	semimem_r	semiten_r	bifemlh_r	bifemsh_r	sar_r	add_long_r	add_brev_r	add_mag1_r	add_mag2_r	add_mag3_r	tfl_r	pect_r	grac_r	glut_max1_r	glut_max2_r	glut_max3_r	iliacus_r	psoas_r	quad_fem_r	gem_r	peri_r	rect_fem_r	vas_med_r	vas_int_r	vas_lat_r	med_gas_r	lat_gas_r	soleus_r	tib_post_r	flex_dig_r	flex_hal_r	tib_ant_r	per_brev_r	per_long_r	per_tert_r	ext_dig_r	ext_hal_r	glut_med1_l	glut_med2_l	glut_med3_l	glut_min1_l	glut_min2_l	glut_min3_l	semimem_l	semiten_l	bifemlh_l	bifemsh_l	sar_l	add_long_l	add_brev_l	add_mag1_l	add_mag2_l	add_mag3_l	tfl_l	pect_l	grac_l	glut_max1_l	glut_max2_l	glut_max3_l	iliacus_l	psoas_l	quad_fem_l	gem_l	peri_l	rect_fem_l	vas_med_l	vas_int_l	vas_lat_l	med_gas_l	lat_gas_l	soleus_l	tib_post_l	flex_dig_l	flex_hal_l	tib_ant_l	per_brev_l	per_long_l	per_tert_l	ext_dig_l	ext_hal_l	ercspn_r	ercspn_l	intobl_r	intobl_l	extobl_r	extobl_l	femur_lat_meniscii_r.femur_lat_r.force.X	femur_lat_meniscii_r.femur_lat_r.force.Y	femur_lat_meniscii_r.femur_lat_r.force.Z	femur_lat_meniscii_r.femur_lat_r.torque.X	femur_lat_meniscii_r.femur_lat_r.torque.Y	femur_lat_meniscii_r.femur_lat_r.torque.Z	femur_lat_meniscii_r.meniscus_lat_r.force.X	femur_lat_meniscii_r.meniscus_lat_r.force.Y	femur_lat_meniscii_r.meniscus_lat_r.force.Z	femur_lat_meniscii_r.meniscus_lat_r.torque.X	femur_lat_meniscii_r.meniscus_lat_r.torque.Y	femur_lat_meniscii_r.meniscus_lat_r.torque.Z	femur_med_meniscii_r.femur_med_r.force.X	femur_med_meniscii_r.femur_med_r.force.Y	femur_med_meniscii_r.femur_med_r.force.Z	femur_med_meniscii_r.femur_med_r.torque.X	femur_med_meniscii_r.femur_med_r.torque.Y	femur_med_meniscii_r.femur_med_r.torque.Z	femur_med_meniscii_r.meniscus_med_r.force.X	femur_med_meniscii_r.meniscus_med_r.force.Y	femur_med_meniscii_r.meniscus_med_r.force.Z	femur_med_meniscii_r.meniscus_med_r.torque.X	femur_med_meniscii_r.meniscus_med_r.torque.Y	femur_med_meniscii_r.meniscus_med_r.torque.Z	femur_med_tibia_r.tibia_upper_r.force.X	femur_med_tibia_r.tibia_upper_r.force.Y	femur_med_tibia_r.tibia_upper_r.force.Z	femur_med_tibia_r.tibia_upper_r.torque.X	femur_med_tibia_r.tibia_upper_r.torque.Y	femur_med_tibia_r.tibia_upper_r.torque.Z	femur_med_tibia_r.femur_med_r.force.X	femur_med_tibia_r.femur_med_r.force.Y	femur_med_tibia_r.femur_med_r.force.Z	femur_med_tibia_r.femur_med_r.torque.X	femur_med_tibia_r.femur_med_r.torque.Y	femur_med_tibia_r.femur_med_r.torque.Z	femur_lat_tibia_r.tibia_upper_r.force.X	femur_lat_tibia_r.tibia_upper_r.force.Y	femur_lat_tibia_r.tibia_upper_r.force.Z	femur_lat_tibia_r.tibia_upper_r.torque.X	femur_lat_tibia_r.tibia_upper_r.torque.Y	femur_lat_tibia_r.tibia_upper_r.torque.Z	femur_lat_tibia_r.femur_lat_r.force.X	femur_lat_tibia_r.femur_lat_r.force.Y	femur_lat_tibia_r.femur_lat_r.force.Z	femur_lat_tibia_r.femur_lat_r.torque.X	femur_lat_tibia_r.femur_lat_r.torque.Y	femur_lat_tibia_r.femur_lat_r.torque.Z	aACL_R	pACL_R	aPCL_R	pPCL_R	aMCL_R	mMCL_R	pMCL_R	aLCL_R	mLCL_R	pLCL_R	aPCL_L	pPCL_L	aMCL_L	aLCL_L
      0.16038593	     11.63459303	      8.49662352	      9.14048509	      3.92013541	      4.55210035	      4.94111506	      4.51443389	    162.65549122	    152.59521745	    308.86781533	    128.54112587	      8.45803654	      6.08339169	      0.00000000	      3.70626097	      6.25572659	      5.22994908	      3.30932104	     98.18068624	      5.48654840	      8.34677509	      6.27421657	     27.82552873	     18.84665555	      5.39261963	      3.70191946	      6.28231482	     50.88530336	     31.21983374	     33.50568021	     45.50349087	      0.00000000	      0.00000000	      0.00000000	      0.00000000	      0.00000000	      0.00000000	     32.87658556	      2.49455894	      2.96988052	     24.05679536	     39.35900738	     10.21598561	     11.63459303	      8.49662352	      9.14048509	      3.92013541	      4.55210035	      4.94111506	      0.00000000	      6.30348534	     12.43667593	     10.73353252	      2.23655892	      8.45803654	      6.08339169	      0.00000000	      3.70626097	      6.25572659	      5.49977891	      3.30932104	      2.30953920	      5.48654840	      8.34677509	      6.27421657	     27.82552873	     18.84665555	      5.39261963	      3.70191946	      6.28231482	     17.35845084	      0.00000000	      0.00000000	      0.00000000	     21.25921131	     10.05884956	     51.60379064	     51.41271167	      5.54049928	      4.95694233	     13.49103158	      7.22498737	     18.44976006	      2.91377977	      9.02633130	      2.83372621	     36.90043726	     36.90043726	     13.72978501	     13.72978501	     31.06996495	     31.06996495	    109.56614529	    239.22534923	     26.66521185	    -16.47374845	      2.65431999	     42.49212045	   -109.56614529	   -239.22534923	    -26.66521185	      6.51165765	     -3.32964988	      4.50034010	     32.30825860	     33.38336373	     15.87455438	     -5.62772689	     -0.73436538	     12.95858799	    -32.30825860	    -33.38336373	    -15.87455438	     -0.45219336	      0.37737061	      0.16614718	   -671.56555088	   -687.82723574	    209.59391174	    -15.94617764	     15.33583240	     -0.69075189	    671.56555088	    687.82723574	   -209.59391174	     97.76459813	    -12.12510623	    273.38406184	      0.00000000	      0.00000000	      0.00000000	      0.00000000	      0.00000000	      0.00000000	      0.00000000	      0.00000000	      0.00000000	      0.00000000	      0.00000000	      0.00000000	      4.37435115	      0.00000000	    528.61322087	    346.23041688	      0.00000000	      0.00000000	      0.00000000	      0.00000000	      0.00000000	      0.00000000	      0.00000000	      0.00000000	      0.00000001	      0.00000000
      0.16070511	     11.61874437	      8.48471493	      9.12752172	      3.91486504	      4.54633053	      4.93375283	      3.32194723	    162.78455647	    152.59918376	    308.91454248	    128.58847126	      8.44604642	      6.07528899	      0.00000000	      3.70097397	      6.24614792	      5.22244474	      3.30483998	     98.22129254	      5.47882635	      8.33500154	      6.26523116	     27.80356453	     18.82160445	      5.38521227	      3.69829483	      6.27949021	     51.13939441	     31.21265299	     33.49835258	     45.49029230	      0.00000000	      0.00000000	      0.00000000	      0.00000000	      0.00000000	      0.00000000	     32.92807354	      2.48586391	      2.97194321	     24.65258618	     39.56786859	     10.26549579	     11.61874437	      8.48471493	      9.12752172	      3.91486504	      4.54633053	      4.93375283	      0.00000000	      6.29409967	     12.41897177	     10.71877147	      2.23356604	      8.44604642	      6.07528899	      0.00000000	      3.70097397	      6.24614792	      5.49388250	      3.30483998	      2.30639444	      5.47882635	      8.33500154	      6.26523116	     27.80356453	     18.82160445	      5.38521227	      3.69829483	      6.27949021	     17.33087867	      0.00000000	      0.00000000	      0.00000000	     21.25315670	     10.05481533	     51.54086612	     51.37817061	      5.53365933	      4.95091232	     13.47097664	      7.21359055	     18.42881809	      2.90992127	      9.01002503	      2.82867794	     36.85071601	     36.85071601	     13.70981060	     13.70981060	     31.05184096	     31.05184096	    113.55196711	    237.05235549	     26.15062219	    -16.18919203	      2.75922306	     44.16209706	   -113.55196711	   -237.05235549	    -26.15062219	      6.42175465	     -3.43156686	      4.34506280	     32.70920790	     33.15831073	     15.62253818	     -5.53211054	     -0.74255235	     13.11779472	    -32.70920790	    -33.15831073	    -15.62253818	     -0.45155499	      0.38899924	      0.16072514	   -675.36299147	   -685.45734261	    209.87029908	    -15.89111062	     15.40990750	     -0.73819108	    675.36299147	    685.45734261	   -209.87029908	     97.82340597	    -12.18708790	    274.92251206	      0.00000000	      0.00000000	      0.00000000	      0.00000000	      0.00000000	      0.00000000	      0.00000000	      0.00000000	      0.00000000	      0.00000000	      0.00000000	      0.00000000	      4.36311568	      0.00000000	    531.92705783	    347.79467796	      0.00000000	      0.00000000	      0.00000000	      0.00000000	      0.00000000	      0.00000000	      0.00000000	      0.00000000	      0.00000001	      0.00000000
      0.16094538	     11.60683284	      8.47578403	      9.11779987	      3.91091236	      4.54200341	      4.92823107	      2.46094137	    162.87887824	    152.60023480	    308.93218911	    128.62086060	      8.43705447	      6.06921205	      0.65300356	      3.69700893	      6.23896426	      5.21667410	      3.30147931	     98.24922317	      5.47303529	      8.32617210	      6.25849268	     27.78709332	     18.80281847	      5.37965701	      3.69557676	      6.27733246	     51.33257096	     31.21015756	     33.49511151	     45.48191722	      0.00000000	      0.00000000	      0.00000000	      0.00000000	      0.00000000	      0.00000000	     32.96676532	      2.47926061	      2.97340204	     24.95704757	     39.72529792	     10.30293475	     11.60683284	      8.47578403	      9.11779987	      3.91091236	      4.54200341	      4.92823107	      0.00000000	      6.28706099	     12.40566962	     10.70770123	      2.23132141	      8.43705447	      6.06921205	      0.65300356	      3.69700893	      6.23896426	      5.48946011	      3.30147931	      2.30403596	      5.47303529	      8.32617210	      6.25849268	     27.78709332	     18.80281847	      5.37965701	      3.69557676	      6.27733246	     17.31019573	      0.00000000	      0.00000000	      0.00000000	     21.24850842	     10.05173825	     51.49349154	     51.35223639	      5.52849529	      4.94635037	     13.45592124	      7.20503719	     18.41308188	      2.90702773	      8.99787424	      2.82492478	     36.81342605	     36.81342605	     13.69483097	     13.69483097	     31.03824979	     31.03824979	    113.35559475	    237.87962586	     26.40666762	    -16.31644816	      2.75477472	     44.06182990	   -113.35559475	   -237.87962586	    -26.40666762	      6.45061377	     -3.43320020	      4.40059422	     33.04163685	     33.03719871	     15.42440869	     -5.45512764	     -0.74952060	     13.25010061	    -33.04163685	    -33.03719871	    -15.42440869	     -0.45275142	      0.39870298	      0.15696283	   -678.48157673	   -682.54426839	    210.58308195	    -15.85096384	     15.48210943	     -0.81244587	    678.48157673	    682.54426839	   -210.58308195	     98.06229351	    -12.24055347	    276.19723689	      0.00000000	      0.00000000	      0.00000000	      0.00000000	      0.00000000	      0.00000000	      0.00000000	      0.00000000	      0.00000000	      0.00000000	      0.00000000	      0.00000000	      4.35226815	      0.00000000	    534.43502130	    349.02417445	      0.00000000	      0.00000000	      0.00000000	      0.00000000	      0.00000000	      0.00000000	      0.00000000	      0.00000000	      0.00000001	      0.00000000
      0.16121062	     11.59370299	      8.46595850	      9.10710425	      3.90656358	      4.53724282	      4.92215577	      1.54531524	    162.97863794	    152.59892589	    308.93358818	    128.65224695	      8.42716186	      6.06252608	      1.17132645	      3.69264668	      6.23106090	      5.21018702	      3.29778189	     98.27629027	      5.46666422	      8.31645834	      6.25107934	     27.76897307	     18.78215183	      5.37354518	      3.69258666	      6.27491942	     51.54567545	     31.20363756	     33.48817369	     45.46910103	      0.00000000	      0.00000000	      0.00000000	      0.00000000	      0.00000000	      0.00000000	     33.00949525	      2.47190335	      2.97490617	     23.96184756	     39.89879528	     10.34406036	     11.59370299	      8.46595850	      9.10710425	      3.90656358	      4.53724282	      4.92215577	      0.00000000	      6.27931734	     12.39101054	     10.69552190	      2.22885185	      8.42716186	      6.06252608	      1.17132645	      3.69264668	      6.23106090	      5.48459437	      3.29778189	      2.30144117	      5.46666422	      8.31645834	      6.25107934	     27.76897307	     18.78215183	      5.37354518	      3.69258666	      6.27491942	     17.28743592	      0.00000000	      0.00000000	      0.00000000	     21.24328736	     10.04830163	     51.44118961	     51.32367471	      5.52277910	      4.94129119	     13.43934289	      7.19562082	     18.39573904	      2.90384449	      8.98458436	      2.82082837	     36.77239934	     36.77239934	     13.67835105	     13.67835105	     31.02329811	     31.02329811	    113.23888204	    238.17486317	     26.94662984	    -16.54971140	      2.75391652	     43.99823543	   -113.23888204	   -238.17486317	    -26.94662984	      6.47507263	     -3.44433097	      4.44122460	     33.24668518	     32.92038562	     15.23583855	     -5.37998417	     -0.75356616	     13.33043375	    -33.24668518	    -32.92038562	    -15.23583855	     -0.45583200	      0.40541177	      0.15638017	   -680.56922132	   -681.31653783	    210.55259531	    -15.80693061	     15.52143396	     -0.79924052	    680.56922132	    681.31653783	   -210.55259531	     98.01363247	    -12.27353882	    277.02568961	      0.00000000	      0.00000000	      0.00000000	      0.00000000	      0.00000000	      0.00000000	      0.00000000	      0.00000000	      0.00000000	      0.00000000	      0.00000000	      0.00000000	      4.33912272	      0.00000000	    537.17615827	    350.32601919	      0.00000000	      0.00000000	      0.00000000	      0.00000000	      0.00000000	      0.00000000	      0.00000000	      0.00000000	      0.00000001	      0.00000000
